<mxfile host="65bd71144e">
    <diagram id="WDkam7UQzMazbu9BOgS6" name="Page-1">
        <mxGraphModel dx="2686" dy="1177" grid="1" gridSize="10" guides="1" tooltips="1" connect="1" arrows="1" fold="1" page="1" pageScale="1" pageWidth="850" pageHeight="1100" math="0" shadow="0">
            <root>
                <mxCell id="0"/>
                <mxCell id="1" parent="0"/>
                <mxCell id="23" value="&lt;b style=&quot;font-size: 20px&quot;&gt;CPMStoeMSPConnector&lt;br&gt;&lt;/b&gt;" style="html=1;dropTarget=0;fontSize=20;sketch=0;" parent="1" vertex="1">
                    <mxGeometry x="330" y="350" width="250" height="87" as="geometry"/>
                </mxCell>
                <mxCell id="24" value="" style="shape=module;jettyWidth=8;jettyHeight=4;fontSize=20;fillColor=#fff2cc;strokeColor=#d6b656;" parent="23" vertex="1">
                    <mxGeometry x="1" width="20" height="20" relative="1" as="geometry">
                        <mxPoint x="-27" y="7" as="offset"/>
                    </mxGeometry>
                </mxCell>
                <mxCell id="27" value="&lt;b&gt;Charging Points&lt;br&gt;Manager&lt;br&gt;&lt;/b&gt;" style="html=1;dropTarget=0;fontSize=20;sketch=0;" parent="1" vertex="1">
                    <mxGeometry x="330" y="507" width="250" height="87" as="geometry"/>
                </mxCell>
                <mxCell id="28" value="" style="shape=module;jettyWidth=8;jettyHeight=4;fontSize=20;fillColor=#fff2cc;strokeColor=#d6b656;" parent="27" vertex="1">
                    <mxGeometry x="1" width="20" height="20" relative="1" as="geometry">
                        <mxPoint x="-27" y="7" as="offset"/>
                    </mxGeometry>
                </mxCell>
                <mxCell id="30" value="" style="endArrow=classic;html=1;exitX=0.5;exitY=0;exitDx=0;exitDy=0;entryX=0.5;entryY=1;entryDx=0;entryDy=0;" parent="1" source="27" target="23" edge="1">
                    <mxGeometry width="50" height="50" relative="1" as="geometry">
                        <mxPoint x="410" y="627" as="sourcePoint"/>
                        <mxPoint x="660" y="577" as="targetPoint"/>
                    </mxGeometry>
                </mxCell>
                <mxCell id="KauFELLUTD6gfGKZZoM2-36" value="&lt;b style=&quot;font-size: 20px&quot;&gt;Account Manager&lt;br&gt;&lt;/b&gt;" style="html=1;dropTarget=0;fontSize=20;sketch=0;" parent="1" vertex="1">
                    <mxGeometry x="10" y="507" width="230" height="87" as="geometry"/>
                </mxCell>
                <mxCell id="KauFELLUTD6gfGKZZoM2-37" value="" style="shape=module;jettyWidth=8;jettyHeight=4;fontSize=20;fillColor=#fff2cc;strokeColor=#d6b656;" parent="KauFELLUTD6gfGKZZoM2-36" vertex="1">
                    <mxGeometry x="1" width="20" height="20" relative="1" as="geometry">
                        <mxPoint x="-27" y="7" as="offset"/>
                    </mxGeometry>
                </mxCell>
                <mxCell id="KauFELLUTD6gfGKZZoM2-39" value="&lt;b style=&quot;font-size: 20px&quot;&gt;Query Manager&lt;br&gt;&lt;/b&gt;" style="html=1;dropTarget=0;fontSize=20;sketch=0;" parent="1" vertex="1">
                    <mxGeometry x="670" y="507" width="230" height="87" as="geometry"/>
                </mxCell>
                <mxCell id="KauFELLUTD6gfGKZZoM2-40" value="" style="shape=module;jettyWidth=8;jettyHeight=4;fontSize=20;fillColor=#dae8fc;strokeColor=#6c8ebf;" parent="KauFELLUTD6gfGKZZoM2-39" vertex="1">
                    <mxGeometry x="1" width="20" height="20" relative="1" as="geometry">
                        <mxPoint x="-27" y="7" as="offset"/>
                    </mxGeometry>
                </mxCell>
                <mxCell id="KauFELLUTD6gfGKZZoM2-41" value="" style="endArrow=classic;html=1;exitX=1;exitY=0.5;exitDx=0;exitDy=0;" parent="1" source="27" target="KauFELLUTD6gfGKZZoM2-39" edge="1">
                    <mxGeometry width="50" height="50" relative="1" as="geometry">
                        <mxPoint x="455" y="517" as="sourcePoint"/>
                        <mxPoint x="455" y="447" as="targetPoint"/>
                    </mxGeometry>
                </mxCell>
                <mxCell id="KauFELLUTD6gfGKZZoM2-42" value="" style="endArrow=classic;html=1;exitX=0;exitY=0.5;exitDx=0;exitDy=0;entryX=1;entryY=0.5;entryDx=0;entryDy=0;" parent="1" source="27" target="KauFELLUTD6gfGKZZoM2-36" edge="1">
                    <mxGeometry width="50" height="50" relative="1" as="geometry">
                        <mxPoint x="465" y="527" as="sourcePoint"/>
                        <mxPoint x="465" y="457" as="targetPoint"/>
                    </mxGeometry>
                </mxCell>
            </root>
        </mxGraphModel>
    </diagram>
</mxfile>